/* XPM */
static char *e598a65cfb9e4b5cce52c64139264e89Gd2oULEvLc0uYBT5[] = {
/* columns rows colors chars-per-pixel */
"16 16 2 1 ",
"  c black",
". c #86310E",
/* pixels */
" ..... .   .... ",
".         .     ",
".         .     ",
".               ",
".         .     ",
".               ",
".         .. .. ",
"          .     ",
".         .     ",
"          .     ",
"         .      ",
"..       .      ",
". ..            ",
".   ..  .       ",
"        .       ",
"                "
};
