/* XPM */
static char *d144a2d1d8a440cfa90e64e466779a77hmRzEAS9EXWB3hMU[] = {
/* columns rows colors chars-per-pixel */
"16 16 4 1 ",
"  c #D82800",
". c #887000",
"X c #FC9838",
"o c #93BBEC",
/* pixels */
"oooooooooooooooo",
"oooooo     ooooo",
"ooooo         oo",
"ooooo...XX.Xoooo",
"oooo.X.XXX.XXXoo",
"oooo.X..XXX.XXXo",
"oooo..XXXX....oo",
"ooooooXXXXXXXooo",
"ooooo.... .oXooo",
"ooooX......XXXoo",
"oooXX .....XXooo",
"ooo..       oooo",
"ooo.        oooo",
"oo..   o   ooooo",
"oo.oooo...oooooo",
"ooooooo....ooooo"
};
